# xmcd
#
# Track frame offsets:
#	150
#	11255
#	23133
#	36608
#	51188
#	67036
#	77105
#	89900
#	102607
#	116258
#	131513
#	141748
#	154459
#	165521
#	176258
#	186079
#
# Disc length: 2639 seconds
#
# Revision: 1
# Processed by: cddbd v1.5.2PL0 Copyright (c) Steve Scherf et al.
# Submitted via: audiograbber 1.83.01
#
DISCID=e30a4d10
DTITLE=Margo O'Donnell - Two Sides Of [CD2 - The Country Side)
DYEAR=1900
DGENRE=
TTITLE0=Hello Darlin
TTITLE1=I Overlooked An Orchid
TTITLE2=Dear God
TTITLE3=Family Bible
TTITLE4=Gathering Flowers For The Masters Bouquet
TTITLE5=A House Without Love
TTITLE6=Crazy Dreams
TTITLE7=I Washed My Face In The Morning Dew
TTITLE8=Coat Of Many Colours
TTITLE9=It Rains The Same In Missouri
TTITLE10=My Baby's Not Here In Town Tonight
TTITLE11=Mama Say A Prayer
TTITLE12=Too Many Teardrops Too Late
TTITLE13=Time Changes Everything
TTITLE14=Be Nice To Everybody
TTITLE15=Put My Little Shoes Away
EXTD=
EXTT0=
EXTT1=
EXTT2=
EXTT3=
EXTT4=
EXTT5=
EXTT6=
EXTT7=
EXTT8=
EXTT9=
EXTT10=
EXTT11=
EXTT12=
EXTT13=
EXTT14=
EXTT15=
PLAYORDER=
